<?xml version="1.0" standalone="no"?><!DOCTYPE svg PUBLIC "-//W3C//DTD SVG 1.1//EN" "http://www.w3.org/Graphics/SVG/1.1/DTD/svg11.dtd"><svg t="1552036326790" class="icon" style="" viewBox="0 0 1024 1024" version="1.1" xmlns="http://www.w3.org/2000/svg" p-id="2790" xmlns:xlink="http://www.w3.org/1999/xlink" width="200" height="200"><defs><style type="text/css"></style></defs><path d="M898.7 536.2H125.3c-0.4 0-0.8-0.3-0.8-0.8v-22.7c0-0.4 0.3-0.8 0.8-0.8h773.4c0.4 0 0.8 0.3 0.8 0.8v22.7c0 0.5-0.4 0.8-0.8 0.8zM753.4 649.2H270.6c-0.4 0-0.8-0.3-0.8-0.8v-22.7c0-0.4 0.3-0.8 0.8-0.8h482.8c0.4 0 0.8 0.3 0.8 0.8v22.7c0 0.5-0.4 0.8-0.8 0.8zM753.4 746.1H270.6c-0.4 0-0.8-0.3-0.8-0.8v-22.7c0-0.4 0.3-0.8 0.8-0.8h482.8c0.4 0 0.8 0.3 0.8 0.8v22.7c0 0.5-0.4 0.8-0.8 0.8zM753.4 843H270.6c-0.4 0-0.8-0.3-0.8-0.8v-22.7c0-0.4 0.3-0.8 0.8-0.8h482.8c0.4 0 0.8 0.3 0.8 0.8v22.7c0 0.4-0.4 0.8-0.8 0.8z" fill="#A0A0A0" p-id="2791"></path><path d="M777 221.4h-24.2v-113c0-11.1-7.9-20.2-17.6-20.2H288.8c-9.7 0-17.6 9-17.6 20.2v113H247v-113c0-24.5 18.8-44.4 41.9-44.4h446.3c23.1 0 41.9 19.9 41.9 44.4v113z" fill="#A0A0A0" p-id="2792"></path><path d="M915.6 782.4h-80.7v-24.2h80.7c11.1 0 20.2-9 20.2-20.2V253.7c0-11.1-9-20.2-20.2-20.2H108.4c-11.1 0-20.2 9-20.2 20.2V738c0 11.1 9 20.2 20.2 20.2h80.7v24.2h-80.7C83.9 782.4 64 762.5 64 738V253.7c0-24.5 19.9-44.4 44.4-44.4h807.2c24.5 0 44.4 19.9 44.4 44.4V738c0 24.5-19.9 44.4-44.4 44.4z" fill="#A0A0A0" p-id="2793"></path><path d="M796.9 960H227.1c-28.1 0-50.1-28.2-50.1-64.3V528.1h24.2v367.6c0 21.7 11.8 40.1 25.9 40.1h569.8c14 0 25.9-18.3 25.9-40.1V528.1H847v367.6c0 36.1-22 64.3-50.1 64.3zM834.9 382.9h-0.3c-24.7-0.6-44.1-20.1-44.1-44.4s19.4-43.8 44.1-44.4c25.3 0.6 44.7 20.1 44.7 44.4s-19.4 43.8-44.1 44.4h-0.3z m-0.3-64.6c-10.9 0.3-19.9 9.1-19.9 20.2 0 11 8.8 19.8 20.2 20.2 11.3-0.4 20.2-9.2 20.2-20.2 0-11.1-9-19.9-20.5-20.2z" fill="#A0A0A0" p-id="2794"></path></svg>